<svg width="16" height="16" viewBox="0 0 16 16" fill="none" xmlns="http://www.w3.org/2000/svg">
<path d="M7.99992 4.57671C7.32285 4.57671 6.66098 4.77748 6.09802 5.15364C5.53505 5.5298 5.09628 6.06446 4.83717 6.68999C4.57807 7.31552 4.51027 8.00384 4.64236 8.6679C4.77445 9.33196 5.1005 9.94194 5.57926 10.4207C6.05802 10.8995 6.668 11.2255 7.33206 11.3576C7.99612 11.4897 8.68444 11.4219 9.30997 11.1628C9.9355 10.9037 10.4702 10.4649 10.8463 9.90194C11.2225 9.33898 11.4233 8.67711 11.4233 8.00004C11.4233 7.09212 11.0626 6.22138 10.4206 5.57938C9.77858 4.93738 8.90784 4.57671 7.99992 4.57671ZM7.99992 10.2227C7.56032 10.2227 7.13059 10.0924 6.76507 9.84812C6.39956 9.60389 6.11467 9.25676 5.94644 8.85062C5.77821 8.44448 5.7342 7.99758 5.81996 7.56642C5.90572 7.13527 6.11741 6.73922 6.42826 6.42838C6.7391 6.11753 7.13514 5.90584 7.5663 5.82008C7.99745 5.73432 8.44436 5.77834 8.8505 5.94656C9.25664 6.11479 9.60377 6.39968 9.848 6.76519C10.0922 7.13071 10.2226 7.56044 10.2226 8.00004C10.2226 8.58953 9.98841 9.15487 9.57158 9.5717C9.15475 9.98853 8.58941 10.2227 7.99992 10.2227ZM12.3593 4.44137C12.3593 4.5996 12.3123 4.75427 12.2244 4.88583C12.1365 5.01739 12.0116 5.11993 11.8654 5.18048C11.7192 5.24103 11.5584 5.25687 11.4032 5.226C11.248 5.19513 11.1054 5.11894 10.9936 5.00706C10.8817 4.89518 10.8055 4.75263 10.7746 4.59745C10.7438 4.44226 10.7596 4.28141 10.8201 4.13523C10.8807 3.98905 10.9832 3.8641 11.1148 3.7762C11.2464 3.68829 11.401 3.64137 11.5593 3.64137C11.6643 3.64137 11.7683 3.66207 11.8654 3.70227C11.9625 3.74247 12.0507 3.8014 12.1249 3.87569C12.1992 3.94998 12.2582 4.03817 12.2984 4.13523C12.3386 4.23229 12.3593 4.33632 12.3593 4.44137ZM14.3173 3.63337C14.1495 3.18846 13.887 2.78536 13.5479 2.45204C13.2152 2.11297 12.8125 1.85064 12.3679 1.68337C11.8498 1.48922 11.3024 1.38462 10.7493 1.37404C10.0386 1.34137 9.81125 1.33337 7.99992 1.33337C6.18859 1.33337 5.96192 1.34071 5.25059 1.37404C4.69763 1.3848 4.15051 1.4894 3.63259 1.68337C3.18804 1.85076 2.78535 2.11307 2.45259 2.45204C2.11291 2.78488 1.85031 3.18812 1.68325 3.63337C1.48935 4.15132 1.38475 4.69842 1.37392 5.25137C1.34059 5.96204 1.33325 6.18937 1.33325 8.00004C1.33325 9.81071 1.34059 10.038 1.37392 10.7487C1.38475 11.3017 1.48935 11.8488 1.68325 12.3667C1.85031 12.812 2.11291 13.2152 2.45259 13.548C2.78575 13.8868 3.18862 14.1491 3.63325 14.3167C4.15122 14.5105 4.69831 14.6151 5.25125 14.626C5.96259 14.6587 6.18992 14.6667 7.99992 14.6667C9.80992 14.6667 10.0379 14.6594 10.7486 14.626C11.3018 14.6153 11.8491 14.5107 12.3673 14.3167C12.8102 14.1454 13.2125 13.8835 13.5483 13.5477C13.8841 13.2119 14.146 12.8096 14.3173 12.3667C14.5115 11.8488 14.6161 11.3017 14.6266 10.7487C14.6593 10.0374 14.6666 9.81071 14.6666 8.00004C14.6666 6.18937 14.6593 5.96204 14.6266 5.25137C14.6158 4.69842 14.5112 4.1513 14.3173 3.63337ZM13.4273 10.694C13.4233 11.1171 13.3464 11.5364 13.1999 11.9334C13.0891 12.2213 12.9191 12.4828 12.7009 12.701C12.4827 12.9192 12.2212 13.0892 11.9333 13.2C11.5367 13.3467 11.118 13.4243 10.6953 13.4294C9.99259 13.4614 9.78125 13.468 8.00059 13.468C6.21992 13.468 6.00992 13.4614 5.30725 13.4294C4.88361 13.4246 4.46395 13.347 4.06659 13.2C3.777 13.0932 3.51503 12.9228 3.29992 12.7014C3.07839 12.4864 2.90797 12.2244 2.80125 11.9347C2.65392 11.5384 2.57633 11.1195 2.57192 10.6967C2.54125 9.99137 2.53325 9.78071 2.53325 8.00004C2.53325 6.21937 2.53992 6.00937 2.57192 5.30604C2.57759 4.88274 2.65583 4.46355 2.80325 4.06671C2.91013 3.77712 3.08053 3.51515 3.30192 3.30004C3.51591 3.07792 3.7773 2.907 4.06659 2.80004C4.46371 2.65339 4.88326 2.5767 5.30659 2.57337C6.00925 2.54071 6.22059 2.53337 7.99992 2.53337C9.77925 2.53337 9.99125 2.54071 10.6946 2.57271C11.1174 2.57717 11.5364 2.65406 11.9333 2.80004C12.2212 2.91088 12.4827 3.08088 12.7009 3.29906C12.9191 3.51724 13.0891 3.77875 13.1999 4.06671C13.3472 4.46304 13.4248 4.8819 13.4293 5.30471C13.4599 6.00937 13.4666 6.22004 13.4666 8.00004C13.4666 9.78004 13.4599 9.99071 13.4273 10.694Z" fill="#36373C"/>
</svg>
