<svg width="16" height="16" viewBox="0 0 16 16" fill="none" xmlns="http://www.w3.org/2000/svg">
<path d="M4.64993 13.778H2.07793V6.03931H4.64993V13.778ZM3.38126 2.30798C3.19799 2.2929 3.01358 2.31569 2.83949 2.37492C2.6654 2.43415 2.50536 2.52856 2.36932 2.65229C2.23328 2.77601 2.12414 2.92639 2.04869 3.09409C1.97325 3.26179 1.93311 3.44322 1.93077 3.62709C1.92844 3.81097 1.96395 3.99336 2.03511 4.16292C2.10626 4.33248 2.21154 4.48559 2.3444 4.61273C2.47725 4.73987 2.63484 4.83832 2.80737 4.90196C2.9799 4.9656 3.16367 4.99306 3.34726 4.98265H3.3646C3.5488 4.99801 3.73418 4.97514 3.90913 4.91547C4.08407 4.8558 4.24479 4.76061 4.38121 4.63589C4.51763 4.51116 4.62679 4.35958 4.70185 4.19067C4.77692 4.02176 4.81626 3.83915 4.81741 3.65432C4.81856 3.46948 4.7815 3.2864 4.70855 3.11656C4.63559 2.94673 4.52833 2.7938 4.39348 2.66739C4.25863 2.54097 4.0991 2.44379 3.92492 2.38194C3.75073 2.32009 3.56564 2.29491 3.38126 2.30798ZM6.07393 13.778H8.64593V9.45665C8.63599 9.24414 8.66468 9.03159 8.73059 8.82932C8.82681 8.55557 9.00528 8.31826 9.24157 8.14987C9.47787 7.98148 9.76044 7.89024 10.0506 7.88865C10.9839 7.88865 11.3539 8.59798 11.3539 9.63865V13.778H13.9259V9.34065C13.9259 6.96398 12.6593 5.85732 10.9646 5.85732C10.4985 5.83783 10.036 5.94647 9.62731 6.17143C9.21863 6.3964 8.87944 6.72908 8.6466 7.13332V6.03931H6.07393C6.10793 6.76532 6.07393 13.7786 6.07393 13.7786V13.778Z" fill="#36373C"/>
</svg>
