<svg width="127" height="25" viewBox="0 0 127 25" fill="none" xmlns="http://www.w3.org/2000/svg">
    <g clip-path="url(#clip0_1_677)">
        <path fill-rule="evenodd" clip-rule="evenodd"
            d="M14.4772 25.0001C14.8091 24.998 15.1451 24.8846 15.4152 24.6599L28.4183 13.8773C28.9997 13.3949 29.1255 12.5537 28.7111 11.9207L25.5525 7.11495V0.742269C25.5525 0.125824 24.8454 -0.22054 24.3568 0.156749L16.6296 6.13152H14.4751V25.0001H14.4772Z"
            fill="url(#paint0_linear_1_677)" />
        <path fill-rule="evenodd" clip-rule="evenodd"
            d="M14.4794 25.0001C14.8107 24.9976 15.1459 24.8842 15.4154 24.6599L14.4794 25.0001ZM14.4784 25.0001C14.478 25.0001 14.4777 25.0001 14.4773 25.0001H14.4753V25.0001C14.1447 24.9971 13.8103 24.8837 13.5413 24.6599L0.536197 13.8773C-0.045199 13.3949 -0.170962 12.5537 0.243437 11.9207L3.40194 7.11495V0.742269C3.40194 0.125824 4.1091 -0.22054 4.59772 0.156749L12.3249 6.13152H14.4753H14.4794H16.6297L24.357 0.156749C24.8456 -0.22054 25.5527 0.125824 25.5527 0.742269V7.11495L28.7112 11.9207C29.1256 12.5537 28.9999 13.3949 28.4185 13.8773L15.4154 24.6599"
            fill="url(#paint1_linear_1_677)" fill-opacity="0.5" />
        <path fill-rule="evenodd" clip-rule="evenodd"
            d="M14.4774 25.0001C14.8093 24.998 15.1454 24.8846 15.4155 24.6599L28.4185 13.8773C28.9999 13.3949 29.1257 12.5537 28.7113 11.9207L25.5528 7.11495V0.742269C25.5528 0.125824 24.8456 -0.22054 24.357 0.156749L16.6298 6.13152H14.4753V25.0001H14.4774Z"
            fill="url(#paint2_linear_1_677)" />
        <path fill-rule="evenodd" clip-rule="evenodd"
            d="M14.4789 25.0001C14.147 24.998 13.8109 24.8846 13.5408 24.6599L0.535709 13.8773C-0.0456873 13.3949 -0.17145 12.5537 0.242949 11.9207L3.40146 7.11495V0.742269C3.40146 0.125824 4.10861 -0.22054 4.59723 0.156749L12.3244 6.13152H14.4789V25.0001Z"
            fill="url(#paint3_linear_1_677)" />
        <path fill-rule="evenodd" clip-rule="evenodd"
            d="M14.4789 25.0001C14.147 24.998 13.8109 24.8846 13.5408 24.6599L0.535709 13.8773C-0.0456873 13.3949 -0.17145 12.5537 0.242949 11.9207L3.40146 7.11495V0.742269C3.40146 0.125824 4.10861 -0.22054 4.59723 0.156749L12.3244 6.13152H14.4789V25.0001Z"
            fill="url(#paint4_linear_1_677)" />
        <path
            d="M3.40186 7.11492V0.824707L7.94994 8.72922C6.46965 7.48602 4.83473 7.218 3.40186 7.11286V7.11492Z"
            fill="url(#paint5_linear_1_677)" fill-opacity="0.2" />
        <path
            d="M0.0495012 13.1123C-0.0370897 12.8154 -0.0226579 12.3309 0.232991 11.9392L3.375 7.16023L3.40387 7.11487C3.40387 7.11487 4.30689 7.13136 5.42432 7.42C6.64278 7.73544 7.60353 8.41167 7.90041 8.66732C8.0406 8.78896 8.00556 9.01987 7.83444 9.09203C5.35216 10.1146 3.49046 10.9063 1.23291 11.9351C-0.113372 12.5474 0.0495012 13.1123 0.0495012 13.1123Z"
            fill="url(#paint6_linear_1_677)" fill-opacity="0.2" />
        <path
            d="M25.5525 7.12102V0.830811L21.0044 8.73532C22.4847 7.49213 24.1196 7.22411 25.5525 7.11896V7.12102Z"
            fill="url(#paint7_linear_1_677)" fill-opacity="0.2" />
        <path
            d="M28.907 13.1185C28.9935 12.8217 28.9791 12.3372 28.7235 11.9454L25.5815 7.16645L25.5526 7.12109C25.5526 7.12109 24.6496 7.13759 23.5321 7.42622C22.3137 7.74166 21.3529 8.4179 21.056 8.67354C20.9159 8.79518 20.9509 9.02609 21.122 9.09825C23.6043 10.1209 25.466 10.9125 27.7235 11.9413C29.0678 12.5536 28.9049 13.1206 28.9049 13.1206L28.907 13.1185Z"
            fill="url(#paint8_linear_1_677)" fill-opacity="0.2" />
        <path
            d="M8.87977 13.9741C7.20774 12.1083 3.07612 12.935 2.0061 13.0814C4.86773 15.4461 13.5144 22.6806 13.5186 22.627C13.5495 22.1652 13.5268 22.027 13.3516 21.59C13.1784 21.1508 10.4508 15.7265 8.87977 13.9741Z"
            fill="url(#paint9_linear_1_677)" />
        <path
            d="M20.0911 13.9741C21.7631 12.1083 25.8948 12.935 26.9648 13.0814C24.1032 15.4461 15.4564 22.6806 15.4523 22.627C15.4214 22.1652 15.4441 22.027 15.6193 21.59C15.7925 21.1508 18.5201 15.7265 20.0911 13.9741Z"
            fill="url(#paint10_linear_1_677)" />
    </g>
    <path
        d="M43.2031 11.1399C43.2031 10.4267 42.9477 9.82085 42.4369 9.32242C41.9348 8.81541 41.3245 8.5619 40.6059 8.5619C39.8874 8.5619 39.2727 8.81541 38.7619 9.32242C38.2598 9.82085 38.0088 10.4267 38.0088 11.1399V19.5573H36.7102C36.3553 19.5573 36.0479 19.4327 35.7882 19.1835C35.5371 18.9256 35.4116 18.6206 35.4116 18.2682V10.8564C35.4116 9.52437 35.9181 8.39003 36.931 7.45334C37.9438 6.50806 39.1688 6.03542 40.6059 6.03542C42.043 6.03542 43.268 6.50376 44.2809 7.44045L44.5016 7.65959L44.7224 7.44045C45.7353 6.50376 46.9603 6.03542 48.3974 6.03542C49.8345 6.03542 51.0594 6.50806 52.0723 7.45334C53.0852 8.39003 53.5917 9.52437 53.5917 10.8564V19.5573H52.2931C51.9381 19.5573 51.6308 19.4327 51.3711 19.1835C51.12 18.9256 50.9945 18.6206 50.9945 18.2682V11.1399C50.9945 10.4267 50.7391 9.82085 50.2284 9.32242C49.7262 8.81541 49.1159 8.5619 48.3974 8.5619C47.6788 8.5619 47.0642 8.81541 46.5534 9.32242C46.0513 9.82085 45.8002 10.4267 45.8002 11.1399V19.5573H44.5016C44.1467 19.5573 43.8394 19.4327 43.5797 19.1835C43.3286 18.9256 43.2031 18.6206 43.2031 18.2682V11.1399Z"
        fill="#04050B" />
    <path
        d="M61.9155 19.5573C59.9763 19.5573 58.3185 18.8784 56.942 17.5206C55.5742 16.1542 54.8902 14.5086 54.8902 12.5837C54.8902 10.6673 55.5742 9.03025 56.942 7.67248C58.3185 6.30611 59.9763 5.62293 61.9155 5.62293C63.8461 5.62293 65.4953 6.30611 66.8631 7.67248C68.2396 9.03025 68.9278 10.6673 68.9278 12.5837C68.9278 14.5086 68.2396 16.1542 66.8631 17.5206C65.4953 18.8784 63.8461 19.5573 61.9155 19.5573ZM61.9285 16.9792C63.1492 16.9792 64.1924 16.5495 65.0581 15.6902C65.9238 14.8308 66.3566 13.791 66.3566 12.5708C66.3566 11.3591 65.9238 10.3236 65.0581 9.46422C64.1924 8.60487 63.1492 8.17519 61.9285 8.17519C60.6992 8.17519 59.6517 8.60487 58.786 9.46422C57.9202 10.3236 57.4874 11.3591 57.4874 12.5708C57.4874 13.791 57.9202 14.8308 58.786 15.6902C59.6517 16.5495 60.6992 16.9792 61.9285 16.9792Z"
        fill="#04050B" />
    <path
        d="M76.4725 16.9792C77.5201 16.9792 78.3901 16.6355 79.0827 15.948C79.7752 15.2519 80.1215 14.1906 80.1215 12.7641C80.1215 11.4321 79.7752 10.4009 79.0827 9.67046C78.3901 8.93142 77.5201 8.5619 76.4725 8.5619C75.4856 8.5619 74.6329 8.93142 73.9143 9.67046C73.1958 10.4009 72.8365 11.4321 72.8365 12.7641C72.8365 14.1906 73.1958 15.2519 73.9143 15.948C74.6329 16.6355 75.4856 16.9792 76.4725 16.9792ZM72.8235 18.4487C72.7889 18.7237 72.6677 18.9643 72.4599 19.1706C72.2002 19.4284 71.8929 19.5573 71.538 19.5573H70.2394V0.221924H71.538C71.8929 0.221924 72.1959 0.350826 72.447 0.608631C72.7067 0.857842 72.8365 1.15861 72.8365 1.51095V7.1182C73.884 6.38775 75.0961 6.02253 76.4725 6.02253C78.204 6.02253 79.6757 6.59829 80.8877 7.74982C82.1084 8.90134 82.7187 10.5814 82.7187 12.7899C82.7187 14.9984 82.1084 16.6784 80.8877 17.83C79.6757 18.9815 78.204 19.5573 76.4725 19.5573C75.0961 19.5573 73.8797 19.1877 72.8235 18.4487Z"
        fill="#04050B" />
    <path
        d="M90.2764 16.9792C91.2633 16.9792 92.116 16.6355 92.8346 15.948C93.5531 15.2519 93.9124 14.1906 93.9124 12.7641C93.9124 11.4321 93.5531 10.4009 92.8346 9.67046C92.116 8.93142 91.2633 8.5619 90.2764 8.5619C89.2289 8.5619 88.3588 8.93142 87.6663 9.67046C86.9737 10.4009 86.6274 11.4321 86.6274 12.7641C86.6274 14.1906 86.9737 15.2519 87.6663 15.948C88.3588 16.6355 89.2289 16.9792 90.2764 16.9792ZM93.9254 18.4487C92.8692 19.1877 91.6529 19.5573 90.2764 19.5573C88.545 19.5573 87.0689 18.9815 85.8482 17.83C84.6362 16.6784 84.0302 14.9984 84.0302 12.7899C84.0302 10.5814 84.6362 8.90134 85.8482 7.74982C87.0689 6.59829 88.545 6.02253 90.2764 6.02253C91.6529 6.02253 92.8649 6.38775 93.9124 7.1182V1.51095C93.9124 1.15861 94.0379 0.857842 94.289 0.608631C94.5487 0.350826 94.856 0.221924 95.211 0.221924H96.5095V19.5573H95.211C94.856 19.5573 94.553 19.4284 94.302 19.1706C94.0855 18.9643 93.96 18.7237 93.9254 18.4487Z"
        fill="#04050B" />
    <path
        d="M108.963 11.256C108.85 10.5943 108.526 9.99701 107.989 9.46422C107.123 8.60487 106.08 8.17519 104.859 8.17519C103.63 8.17519 102.583 8.60487 101.717 9.46422C101.18 9.99701 100.812 10.5943 100.613 11.256H108.963ZM100.587 13.834C100.786 14.5215 101.163 15.1402 101.717 15.6902C102.583 16.5495 103.63 16.9792 104.859 16.9792C106.002 16.9792 106.985 16.6054 107.807 15.8578L109.573 17.7269C108.249 18.9471 106.673 19.5573 104.846 19.5573C102.907 19.5573 101.249 18.8784 99.8728 17.5206C98.505 16.1542 97.8211 14.5086 97.8211 12.5837C97.8211 10.6673 98.505 9.03025 99.8728 7.67248C101.249 6.30611 102.907 5.62293 104.846 5.62293C106.777 5.62293 108.404 6.30611 109.729 7.67248C111.062 9.03025 111.737 11.0841 111.755 13.834H100.587Z"
        fill="#04050B" />
    <path
        d="M121.092 13.1766L123.312 7.9045C123.806 6.80453 124.515 6.25025 125.442 6.24166H127L121.416 19.5573H118.391L112.807 6.24166H114.365C115.291 6.25025 116.001 6.80453 116.495 7.9045L118.728 13.1766C119.135 14.0789 119.529 14.5301 119.91 14.5301C120.291 14.5301 120.685 14.0789 121.092 13.1766Z"
        fill="#04050B" />
    <defs>
        <linearGradient id="paint0_linear_1_677" x1="32.0592" y1="13.401" x2="13.6166" y2="13.5752"
            gradientUnits="userSpaceOnUse">
            <stop stop-color="#EE0509" />
            <stop offset="1" stop-color="#FF0253" />
        </linearGradient>
        <linearGradient id="paint1_linear_1_677" x1="-9.38068" y1="20.6169" x2="16.2873"
            y2="14.5349" gradientUnits="userSpaceOnUse">
            <stop />
            <stop offset="1" stop-opacity="0" />
        </linearGradient>
        <linearGradient id="paint2_linear_1_677" x1="12.4733" y1="1.85552" x2="17.3182" y2="10.9269"
            gradientUnits="userSpaceOnUse">
            <stop stop-color="#FFA242" />
            <stop offset="1" stop-color="#FFA242" stop-opacity="0" />
        </linearGradient>
        <linearGradient id="paint3_linear_1_677" x1="15.9777" y1="13.0917" x2="-2.85636" y2="15.555"
            gradientUnits="userSpaceOnUse">
            <stop stop-color="#FF0253" />
            <stop offset="1" stop-color="#FF6F01" />
        </linearGradient>
        <linearGradient id="paint4_linear_1_677" x1="9.58651" y1="10.9269" x2="16.1364" y2="6.24264"
            gradientUnits="userSpaceOnUse">
            <stop stop-color="#FF0253" stop-opacity="0" />
            <stop offset="1" stop-color="#FF6F01" />
        </linearGradient>
        <linearGradient id="paint5_linear_1_677" x1="2.57718" y1="1.5463" x2="8.65916" y2="11.3393"
            gradientUnits="userSpaceOnUse">
            <stop stop-opacity="0" />
            <stop offset="1" />
        </linearGradient>
        <linearGradient id="paint6_linear_1_677" x1="0.618529" y1="10.6177" x2="13.2995"
            y2="5.05477" gradientUnits="userSpaceOnUse">
            <stop stop-opacity="0" />
            <stop offset="1" />
        </linearGradient>
        <linearGradient id="paint7_linear_1_677" x1="26.2864" y1="3.19551" x2="23.297" y2="9.99908"
            gradientUnits="userSpaceOnUse">
            <stop stop-opacity="0" />
            <stop offset="1" />
        </linearGradient>
        <linearGradient id="paint8_linear_1_677" x1="28.8637" y1="9.3807" x2="21.5447" y2="6.39125"
            gradientUnits="userSpaceOnUse">
            <stop stop-opacity="0" />
            <stop offset="1" />
        </linearGradient>
        <linearGradient id="paint9_linear_1_677" x1="7.80078" y1="12.7824" x2="12.1303" y2="22.1631"
            gradientUnits="userSpaceOnUse">
            <stop stop-color="white" />
            <stop offset="1" stop-color="#C3DFDA" />
        </linearGradient>
        <linearGradient id="paint10_linear_1_677" x1="21.2353" y1="12.7824" x2="25.5649"
            y2="22.1631" gradientUnits="userSpaceOnUse">
            <stop stop-color="white" />
            <stop offset="1" stop-color="#C3DFDA" />
        </linearGradient>
        <clipPath id="clip0_1_677">
            <rect width="28.9564" height="25" fill="white" />
        </clipPath>
    </defs>
</svg>